<?xml version="1.0" encoding="UTF-8" standalone="no"?>
<svg
   xmlns:dc="http://purl.org/dc/elements/1.1/"
   xmlns:cc="http://creativecommons.org/ns#"
   xmlns:rdf="http://www.w3.org/1999/02/22-rdf-syntax-ns#"
   xmlns:svg="http://www.w3.org/2000/svg"
   xmlns="http://www.w3.org/2000/svg"
   xmlns:sodipodi="http://sodipodi.sourceforge.net/DTD/sodipodi-0.dtd"
   xmlns:inkscape="http://www.inkscape.org/namespaces/inkscape"
   width="256"
   height="256"
   viewBox="0 0 67.733332 67.733335"
   version="1.1"
   id="svg8"
   inkscape:version="1.0.2-2 (e86c870879, 2021-01-15)"
   sodipodi:docname="icon.svg"
   inkscape:export-filename="D:\DropBox\Dropbox\progging\RUST\EnforceSingleResourceExtractor\icon.png"
   inkscape:export-xdpi="96"
   inkscape:export-ydpi="96">
  <defs
     id="defs2" />
  <sodipodi:namedview
     id="base"
     pagecolor="#ffffff"
     bordercolor="#666666"
     borderopacity="1.0"
     inkscape:pageopacity="0.0"
     inkscape:pageshadow="2"
     inkscape:zoom="2.8"
     inkscape:cx="130.76063"
     inkscape:cy="129.68512"
     inkscape:document-units="px"
     inkscape:current-layer="layer1"
     inkscape:document-rotation="0"
     showgrid="true"
     units="px"
     inkscape:window-width="1920"
     inkscape:window-height="1017"
     inkscape:window-x="1912"
     inkscape:window-y="-8"
     inkscape:window-maximized="1">
    <inkscape:grid
       type="xygrid"
       id="grid22" />
  </sodipodi:namedview>
  <metadata
     id="metadata5">
    <rdf:RDF>
      <cc:Work
         rdf:about="">
        <dc:format>image/svg+xml</dc:format>
        <dc:type
           rdf:resource="http://purl.org/dc/dcmitype/StillImage" />
        <dc:title></dc:title>
      </cc:Work>
    </rdf:RDF>
  </metadata>
  <g
     inkscape:label="PumpJack"
     inkscape:groupmode="layer"
     id="layer1">
    <path
       id="path909"
       style="fill:#575757;fill-opacity:1;stroke:#000000;stroke-width:0.999999px;stroke-linecap:butt;stroke-linejoin:miter;stroke-opacity:1"
       d="m 200,30 v 25 30 h 5 V 71 h 19 V 67 H 205 V 47 h 19 V 43 H 205 V 30 Z"
       transform="scale(0.26458333)" />
    <path
       style="fill:#3b5f7a;fill-opacity:1;stroke:#000000;stroke-width:0.264583px;stroke-linecap:butt;stroke-linejoin:miter;stroke-opacity:1"
       d="M 7.9375006,22.489584 52.916667,16.404167 V 13.758334 L 7.9375006,19.843751 Z"
       id="path891" />
    <path
       id="path893"
       style="fill:#3b5f7a;fill-opacity:1;stroke:#000000;stroke-width:0.999999px;stroke-linecap:butt;stroke-linejoin:miter;stroke-opacity:1"
       d="m 20,75 v 105 h 10 160 v -10 h -80 v -70 l -10,-3 v 73 H 30 V 75 Z"
       transform="scale(0.26458333)" />
    <rect
       style="fill:#784421;fill-rule:evenodd;stroke-width:0.25045"
       id="rect18"
       width="62.177082"
       height="13.65761"
       x="2.645834"
       y="47.625" />
    <path
       style="opacity:0.998;fill:#784421;stroke:#000000;stroke-width:0.264583;stroke-linecap:butt;stroke-linejoin:round;stroke-miterlimit:4;stroke-dasharray:none;stroke-opacity:1"
       d="m 2.698811,54.441257 v -6.803572 h 31.041295 31.041295 v 6.803572 6.80357 H 33.740106 2.698811 Z"
       id="path24" />
    <path
       style="fill:#2e2e2e;fill-opacity:1;stroke:#000000;stroke-width:0.265157px;stroke-linecap:butt;stroke-linejoin:miter;stroke-opacity:1"
       d="M 60.736129,16.933335 V 47.611526 H 60.209015 V 16.933335 Z"
       id="path62" />
    <path
       style="fill:#575757;fill-opacity:1;stroke:#000000;stroke-width:0.264583px;stroke-linecap:butt;stroke-linejoin:miter;stroke-opacity:1"
       d="m 50.270834,7.9375011 h 3.96875 c 0,0 5.291667,-0.264583 5.291667,7.1437499 0,7.408333 -5.291667,7.408333 -5.291667,7.408333 h -3.96875 v 1.322917 h 3.96875 c 0,0 6.614583,0 6.614583,-8.73125 0,-8.7312499 -6.614583,-8.4666669 -6.614583,-8.4666669 h -3.96875 z"
       id="path54" />
    <path
       id="path887"
       style="fill:#563b30;fill-opacity:1;stroke:#000000;stroke-width:0.999999px;stroke-linecap:butt;stroke-linejoin:miter;stroke-opacity:1"
       d="m 30,75 v 10 l 160,50 v 45 h 10 v -55 h -10 z"
       transform="scale(0.26458333)" />
  </g>
  <g
     inkscape:groupmode="layer"
     id="layer2"
     inkscape:label="Lock"
     style="display:inline">
    <path
       style="fill:#b79400;fill-opacity:1;stroke:#000000;stroke-width:0.336875px;stroke-linecap:butt;stroke-linejoin:miter;stroke-opacity:1"
       d="m 22.111606,51.69728 h 23.8125 V 26.6769 h -23.8125 z"
       id="path912" />
    <path
       id="path918"
       style="fill:#766003;fill-opacity:1;stroke:#000000;stroke-width:0.336875px;stroke-linecap:butt;stroke-linejoin:miter;stroke-opacity:1"
       d="m 34.017857,33.349002 c 0,0 -3.401786,0 -3.401786,3.336052 0,1.794377 1.360714,2.66884 1.700892,3.002446 v 0 5.337681 c 0,0 0,1.668025 1.700894,1.668025 1.700893,0 1.700893,-1.668025 1.700893,-1.668025 v -5.337681 0 c 0.340178,-0.333606 1.700892,-1.208069 1.700892,-3.002446 0,-3.336052 -3.401785,-3.336052 -3.401785,-3.336052 z"
       sodipodi:nodetypes="cscccscccsc" />
    <path
       style="fill:#575757;fill-opacity:1;stroke:#000000;stroke-width:0.336875px;stroke-linecap:butt;stroke-linejoin:miter;stroke-opacity:1"
       d="m 22.111606,26.6769 c 0,0 0,-13.344203 11.906251,-13.344203 11.906249,0 11.906249,13.344203 11.906249,13.344203 h -3.401785 c 0,0 0,-10.008153 -8.504464,-10.008153 -8.504466,0 -8.504466,10.008153 -8.504466,10.008153 z"
       id="path941" />
  </g>
</svg>
